PathFileType	4	(X/Y/Z)	C:/Users/opensim2020/Desktop/walking_exp_matlab/subject06_walking13_straight_04.trc	
DataRate	CameraRate	NumFrames	NumMarkers	Units	OrigDataRate	OrigDataStartFrame	OrigNumFrames	
100.00	100.00	8	50	mm	100.00	3013	204	
Frame#	Time	LFHD			RFHD			LBHD			RBHD			C7			T10			CLAV			STRN			RBAK			LSHO			LUPA			LELB			LFRM			LWRA			LWRB			LFIN			RSHO			RUPA			RELB			RFRM			RWRA			RWRB			RFIN			LASI			RASI			LPSI			RPSI			LTHI			LKNE			LTIB			LANK			LHEE			LTOE			RTHI			RKNE			RTIB			RANK			RHEE			RTOE			*39			*40			*41			*42			*43			*44			*45			*46			*47			*48			*49			
		X1	Y1	Z1	X2	Y2	Z2	X3	Y3	Z3	X4	Y4	Z4	X5	Y5	Z5	X6	Y6	Z6	X7	Y7	Z7	X8	Y8	Z8	X9	Y9	Z9	X10	Y10	Z10	X11	Y11	Z11	X12	Y12	Z12	X13	Y13	Z13	X14	Y14	Z14	X15	Y15	Z15	X16	Y16	Z16	X17	Y17	Z17	X18	Y18	Z18	X19	Y19	Z19	X20	Y20	Z20	X21	Y21	Z21	X22	Y22	Z22	X23	Y23	Z23	X24	Y24	Z24	X25	Y25	Z25	X26	Y26	Z26	X27	Y27	Z27	X28	Y28	Z28	X29	Y29	Z29	X30	Y30	Z30	X31	Y31	Z31	X32	Y32	Z32	X33	Y33	Z33	X34	Y34	Z34	X35	Y35	Z35	X36	Y36	Z36	X37	Y37	Z37	X38	Y38	Z38	X39	Y39	Z39	X40	Y40	Z40	X41	Y41	Z41	X42	Y42	Z42	X43	Y43	Z43	X44	Y44	Z44	X45	Y45	Z45	X46	Y46	Z46	X47	Y47	Z47	X48	Y48	Z48	X49	Y49	Z49	X50	Y50	Z50	

154	1.530	1493.48230	-313.39172	1678.00842	1362.56177	-302.82474	1660.33081	1507.67065	-182.03168	1619.47510	1379.18628	-172.70250	1607.89331	1451.98547	-180.94850	1456.87427	1442.53503	-163.73679	1126.99255	1449.23865	-295.62726	1385.77625	1456.84265	-344.71542	1212.52869	1371.35132	-119.17641	1283.72461	1612.12439	-240.04601	1414.06689	1678.61279	-255.11363	1210.33997	1686.43213	-261.33466	1097.23474	1704.43811	-321.35425	958.33606	1663.27539	-416.40042	871.77960	1692.44678	-357.38992	844.10388	1696.91248	-423.53790	783.59198	1288.54309	-250.30667	1414.26611	1203.07605	-226.78253	1211.75293	1193.67517	-242.49379	1090.60461	1177.68555	-264.28839	972.01276	1210.72266	-332.09253	836.35309	1169.14441	-278.44858	835.12347	1168.84375	-318.33646	760.46912	1551.46960	-345.46255	970.76428	1331.16089	-351.82526	984.50659	1519.10657	-187.03534	990.61493	1351.12903	-199.66449	1002.06085	1602.66687	-336.81955	653.04565	1584.38098	-383.92136	497.79910	1582.22144	-205.72093	336.49933	1549.51941	-74.59378	224.07317	1505.43152	-35.75751	244.87067	1537.79785	-139.74663	93.87647	1278.74585	-322.65067	646.50000	1307.19055	-333.20264	522.15320	1314.42493	-288.53226	257.88824	1361.49377	-272.26346	73.43483	1405.11255	-231.25220	48.01254	1368.18481	-422.79404	43.17068	1440.94543	-207.20032	1710.37659																														 
155	1.540	1494.44983	-323.81421	1678.67761	1363.35388	-313.26089	1661.38611	1508.05310	-192.13239	1620.17957	1379.55579	-183.09039	1608.96814	1452.16296	-191.04820	1457.66772	1442.26147	-173.58971	1127.84534	1449.31946	-305.62308	1386.53882	1456.51294	-354.73505	1213.31909	1370.94617	-129.41756	1284.72705	1612.32678	-249.82957	1414.76135	1678.48376	-263.02515	1210.65942	1685.78394	-267.75726	1097.49670	1703.93420	-323.23666	956.69873	1663.40051	-415.27728	866.45825	1691.98621	-355.21793	841.27637	1697.40137	-418.82864	778.20178	1288.82080	-260.51596	1415.47485	1202.66321	-239.74368	1213.10388	1193.11731	-257.53061	1092.10339	1177.27759	-282.31326	974.17310	1211.50061	-352.70370	840.27740	1169.24402	-300.26724	837.72034	1169.05347	-342.42020	764.36334	1550.65173	-355.57736	971.85492	1330.40820	-360.81351	984.61713	1518.99988	-196.95720	991.74152	1350.89990	-208.90074	1002.70148	1602.93799	-350.99902	655.55432	1583.88489	-401.35080	501.32858	1582.22632	-226.95329	335.61728	1549.95593	-99.04939	219.36203	1505.90283	-59.49798	238.60168	1539.39514	-168.70857	91.72966	1278.60559	-327.83813	646.45679	1306.49866	-336.58121	521.82043	1314.30249	-289.73947	257.98218	1361.58301	-272.18582	73.53083	1405.35242	-231.08746	47.97146	1368.25134	-422.58997	43.37891	1441.68994	-217.52664	1711.28210																														 
156	1.550	1495.27808	-333.85272	1679.17212	1364.16895	-323.67368	1662.26233	1508.52856	-202.19139	1620.77185	1379.95532	-193.43158	1609.96582	1452.28442	-201.17130	1458.43762	1441.85413	-183.55411	1128.54004	1449.42810	-315.66449	1387.24158	1456.12988	-364.71799	1213.92798	1370.64966	-139.56390	1285.53662	1612.45654	-259.69977	1415.20398	1678.34570	-270.81461	1210.82312	1685.37720	-274.05621	1097.67761	1703.68665	-325.18298	955.15192	1663.45984	-413.99045	861.38934	1692.29688	-352.87421	838.64392	1697.75574	-413.91083	773.11389	1289.12964	-270.62686	1416.56982	1202.19446	-252.45230	1214.29150	1192.48083	-272.38394	1093.61804	1177.04419	-300.48947	976.33075	1211.99707	-374.37619	844.75336	1169.54248	-322.12158	840.45868	1169.44995	-366.52127	768.68256	1549.84778	-365.78406	972.91174	1329.64966	-369.82962	984.66418	1518.90356	-206.89291	992.75488	1350.83899	-218.13559	1003.23517	1602.90588	-365.44449	658.17224	1583.60132	-418.11127	504.80270	1582.32166	-248.36400	334.10440	1550.32813	-124.16611	213.66953	1506.16260	-83.93565	231.29376	1540.77527	-198.86421	88.96848	1278.48120	-333.33820	646.30414	1306.06543	-340.62170	521.52887	1314.22729	-291.49127	258.03488	1361.62231	-272.18024	73.59231	1404.61584	-230.37270	48.51390	1368.30212	-422.40988	43.54051	1442.45386	-227.83304	1712.06641																														 
157	1.560	1496.21826	-344.11755	1679.61401	1365.06506	-334.17542	1663.09753	1509.05981	-212.27289	1621.25000	1380.34753	-203.75743	1610.80078	1452.44775	-211.31802	1459.02710	1441.39880	-193.44862	1129.12585	1449.60510	-325.67816	1387.77026	1455.76294	-374.74866	1214.44751	1370.35315	-149.77278	1286.20935	1612.52173	-269.64801	1415.38477	1678.34717	-278.60190	1210.90759	1685.13013	-280.35767	1097.79529	1703.77783	-327.13016	953.93127	1663.61182	-412.55621	856.61377	1692.54468	-350.59366	836.41388	1698.06592	-408.93738	768.39301	1289.36206	-280.64246	1417.55579	1201.79858	-264.79269	1215.46130	1191.81885	-287.12454	1095.03760	1176.84119	-318.42319	978.60071	1212.86218	-395.49811	849.23767	1169.89648	-343.98267	843.47186	1170.00488	-390.60019	773.20917	1549.00000	-375.97040	973.71936	1328.94324	-378.83929	984.54413	1519.02576	-216.94472	993.62262	1350.88220	-227.30577	1003.70782	1603.25659	-379.16812	660.68658	1583.15662	-434.60626	508.25067	1582.33264	-269.72269	331.99939	1550.65723	-149.87259	207.15376	1506.26135	-109.01910	222.98439	1542.07983	-229.66985	85.80025	1278.49658	-339.03177	646.03131	1305.75671	-344.91147	521.04523	1314.28516	-293.58356	258.00101	1361.64929	-272.15579	73.65868	1404.66882	-230.26033	48.53397	1368.28760	-422.18814	43.83392	1443.22778	-238.14540	1712.71545																														 
158	1.570	1497.11096	-354.07382	1679.91125	1365.89087	-344.50327	1663.73621	1509.46362	-222.35883	1621.60730	1380.83752	-214.15872	1611.48572	1452.54102	-221.48114	1459.45874	1441.00427	-203.39827	1129.55737	1449.77600	-335.76199	1388.21240	1455.46118	-384.86914	1214.83984	1369.95996	-160.01653	1286.66333	1612.67957	-279.46667	1415.59155	1678.39441	-286.32962	1210.92639	1684.94739	-286.42972	1097.82520	1703.85706	-329.01733	952.73145	1663.76074	-410.99847	852.23004	1693.01526	-348.31958	834.51825	1698.31311	-403.94269	764.06458	1289.63330	-290.69992	1418.39343	1201.31421	-277.09436	1216.57776	1191.06921	-301.61102	1096.51917	1176.35071	-336.18365	981.00586	1213.63586	-416.78827	854.18329	1170.35779	-365.73434	846.63019	1170.79016	-414.51785	778.09064	1548.09827	-386.21851	974.36481	1328.25867	-387.76505	984.31097	1519.15381	-226.91974	994.36377	1350.85217	-236.47693	1004.07196	1603.58752	-392.72253	663.14581	1582.90979	-450.49863	511.54752	1582.39624	-291.10831	329.44327	1550.97742	-176.04732	199.95456	1506.32373	-134.67821	213.57272	1543.37451	-261.35486	82.39385	1278.38171	-344.69751	645.67792	1305.53931	-349.51407	520.52783	1314.38098	-295.68121	257.91992	1361.73413	-272.14401	73.75253	1404.73022	-230.14058	48.59335	1368.26965	-421.90555	44.04279	1443.99475	-248.40967	1713.19971																														 
159	1.580	1498.12830	-364.22815	1680.06348	1366.79358	-354.82141	1664.21729	1509.87500	-232.39487	1621.78723	1381.28821	-224.54250	1611.93884	1452.70728	-231.67355	1459.83179	1440.62061	-213.27620	1129.90784	1449.98401	-345.84195	1388.46265	1455.16809	-394.87811	1215.03540	1369.59766	-170.24223	1286.98071	1612.91907	-289.23331	1415.65430	1678.48401	-294.00446	1210.80322	1684.89734	-292.45374	1097.78198	1703.81445	-330.89960	951.48517	1663.90723	-409.22415	848.16144	1693.64600	-346.26865	832.83740	1698.50659	-399.05203	760.07483	1289.93652	-300.80075	1419.10144	1200.90295	-289.11127	1217.52417	1190.33667	-315.89557	1097.84619	1176.24585	-353.99991	983.41992	1214.64185	-437.62698	859.26434	1170.82788	-387.33920	849.98065	1171.75891	-438.39035	783.23737	1547.27319	-396.61588	974.99072	1327.57788	-396.76071	983.96570	1519.38330	-236.99667	994.94757	1350.93982	-245.70966	1004.30487	1603.50903	-406.44418	666.11969	1582.74463	-465.79645	514.56854	1582.39392	-312.38089	326.45868	1551.11389	-202.91840	191.94467	1506.13232	-161.05266	203.39148	1544.73071	-293.91745	78.94730	1278.47961	-350.73218	645.14667	1305.40796	-354.20410	519.92975	1314.58789	-297.62027	257.92358	1361.91675	-272.04556	73.90221	1404.98047	-229.97960	48.67799	1368.23547	-421.55939	44.19799	1444.77222	-258.62256	1713.53198																														 
160	1.590	1499.09607	-374.32761	1680.09351	1367.71655	-365.30640	1664.56409	1510.45093	-242.50850	1621.78027	1381.74219	-234.91269	1612.27026	1452.90527	-241.92834	1459.94238	1440.08606	-223.20078	1130.04102	1450.14880	-355.96933	1388.61511	1454.88647	-404.98688	1215.13098	1369.36951	-180.41298	1287.22937	1613.11731	-299.17432	1415.50806	1678.57202	-301.61121	1210.58838	1684.88953	-298.44327	1097.72229	1704.10364	-332.84100	950.56348	1664.17566	-408.02509	844.52527	1694.52673	-344.31058	831.44946	1698.63171	-394.38263	756.50354	1290.19080	-311.01163	1419.58630	1200.45874	-301.13541	1218.42200	1189.52466	-329.84531	1099.09766	1176.16907	-371.38702	985.87445	1215.68396	-458.08875	864.48395	1171.32568	-408.94855	853.55981	1172.82300	-462.04269	788.61877	1546.37756	-406.91077	975.37964	1326.92859	-405.85797	983.51086	1519.46948	-247.07001	995.43317	1351.08618	-255.02399	1004.29169	1604.41992	-419.07291	667.71252	1582.69043	-480.70657	517.39667	1582.37415	-333.65768	323.11356	1551.13660	-230.41559	183.42046	1505.74915	-188.20477	192.41835	1546.20984	-327.15982	75.57594	1278.79651	-356.96997	644.60504	1305.57825	-359.32373	519.24963	1314.91125	-299.52289	257.82922	1362.18433	-272.11343	74.05170	1405.16064	-229.65114	48.88213	1367.96277	-421.23227	44.40774	1445.63867	-268.91873	1713.65186																														 
161	1.600	1500.09485	-384.43890	1679.94580	1368.70313	-375.66614	1664.76855	1510.98804	-252.60822	1621.55884	1382.29529	-245.37430	1612.35254	1453.04785	-252.19341	1459.95300	1439.82947	-233.11455	1130.27820	1450.37402	-366.12939	1388.52966	1454.57556	-415.00992	1214.98547	1368.98694	-190.56563	1287.43420	1613.34265	-309.13336	1415.24890	1678.67017	-309.12723	1210.29236	1684.97290	-304.16516	1097.59656	1704.39099	-334.74362	949.69141	1664.33130	-406.41992	841.15759	1695.47571	-342.74780	830.33679	1698.75818	-389.93033	753.36475	1290.47424	-321.29227	1419.91248	1200.00916	-312.80933	1219.10510	1188.62915	-343.50079	1100.21619	1175.86597	-388.40784	988.34729	1216.62317	-478.55063	869.87683	1171.78625	-430.14227	857.27942	1173.99939	-485.50681	794.25171	1545.55334	-417.21613	975.70709	1326.36633	-414.89838	982.89752	1519.68872	-257.11682	995.71838	1351.15112	-264.26834	1004.15710	1604.76978	-431.18719	668.99371	1582.68689	-494.88474	519.83704	1582.42798	-354.72931	319.19632	1551.01563	-258.49539	174.41205	1505.27625	-216.21352	180.98645	1547.86865	-361.08420	72.40322	1279.10974	-363.47476	643.68457	1305.88757	-364.53616	518.45410	1315.38867	-301.84491	257.72455	1362.53223	-272.52402	74.22390	1406.03333	-230.71899	48.75016	1368.09143	-421.33752	44.39721	1446.49609	-279.04456	1713.61804																														 
